<svg xmlns="http://www.w3.org/2000/svg" fill="none" viewBox="0 0 171.086 197.65231788079467" style="max-height: 500px" width="171.086" height="197.65231788079467">
<g clip-path="url(#clip0_1_2)">
<mask height="197" width="171" y="0" x="0" maskUnits="userSpaceOnUse" style="mask-type:luminance" id="mask0_1_2">
<path fill="white" d="M170.3 0H0V196.7H170.3V0Z"/>
</mask>
<g mask="url(#mask0_1_2)">
<path fill="url(#paint0_linear_1_2)" d="M24.3 63.2L109.5 14L85.2 0L0 49.2V147.5L85.2 196.7V168.6L24.3 133.4V63.2Z" clip-rule="evenodd" fill-rule="evenodd"/>
<path fill="#666666" d="M85.2 98.3V126.4L146 91.3V133.4L85.2 168.5V196.6L170.4 147.4V49.2L85.2 98.3Z"/>
<path fill="url(#paint1_linear_1_2)" d="M24.3 63.2V133.4L48.7 119.4V77.3L109.5 42.1V14L24.3 63.2Z" clip-rule="evenodd" fill-rule="evenodd"/>
<path fill="url(#paint2_linear_1_2)" d="M121.6 105.4V119.4L146 133.4V91.3L121.6 105.4Z" clip-rule="evenodd" fill-rule="evenodd"/>
<path fill="#F99B52" d="M60.8 84.3V112.4L85.1 126.4V98.3L60.8 84.3Z"/>
<path fill="url(#paint3_linear_1_2)" d="M24.3 133.4L85.2 168.6L146 133.4L121.6 119.4L85.2 140.5L48.7 119.4L24.3 133.4Z" clip-rule="evenodd" fill-rule="evenodd"/>
<path fill="url(#paint4_linear_1_2)" d="M85.2 98.3V126.4L146 91.3V133.4L85.2 168.6V196.7L170.3 147.5V49.2L85.2 98.3Z"/>
<path fill="url(#paint5_linear_1_2)" d="M60.8 84.3L85.1 98.3L170.3 49.1L146 35.1L60.8 84.3Z"/>
</g>
<path fill="black" d="M256.27 147.54C247.614 147.638 239.089 145.429 231.57 141.14C224.217 136.955 218.143 130.846 214 123.47C209.688 115.775 207.481 107.08 207.6 98.26C207.479 89.4368 209.65 80.7332 213.9 73C217.903 65.7004 223.84 59.6453 231.06 55.5C238.571 51.1912 247.102 48.9807 255.76 49.1C262.032 49.0294 268.256 50.2055 274.07 52.56C279.381 54.5756 284.216 57.6708 288.27 61.65C291.979 65.2806 294.823 69.6999 296.59 74.58L279.06 83C277.436 78.3419 274.389 74.312 270.35 71.48C266.1 68.4468 260.98 66.8747 255.76 67C250.534 66.9243 245.391 68.3097 240.91 71C236.582 73.6207 233.108 77.4421 230.91 82C228.516 87.08 227.332 92.6455 227.45 98.26C227.346 103.926 228.576 109.537 231.04 114.64C233.377 119.178 236.92 122.985 241.28 125.64C245.818 128.325 251.008 129.709 256.28 129.64C260.513 129.681 264.705 128.807 268.57 127.08C272.237 125.508 275.419 122.988 277.79 119.78C280.104 116.487 281.312 112.544 281.24 108.52V108.26H255.76L246.5 93.52H301.07V101.71C301.07 111.61 298.937 120.017 294.67 126.93C290.694 133.569 284.913 138.942 278 142.42C271.26 145.811 263.815 147.565 256.27 147.54Z"/>
<path fill="black" d="M326.65 147.54C319.05 147.54 313.077 145.747 308.73 142.16C304.38 138.58 302.73 133.63 302.73 127.31C302.73 121.31 304.28 116.47 308.37 112.72C312.46 108.97 318.78 106.28 327.06 104.91L346.39 101.84V99.92C346.401 98.6392 346.118 97.3728 345.564 96.2183C345.009 95.0637 344.197 94.0517 343.19 93.26C340.787 91.3807 337.787 90.4294 334.74 90.58C331.488 90.5275 328.305 91.5117 325.65 93.39C323.056 95.2308 321.09 97.8246 320.02 100.82L304.66 93.52C306.7 87.7246 310.714 82.8321 316 79.7C321.927 76.205 328.711 74.432 335.59 74.58C340.927 74.4798 346.219 75.5731 351.08 77.78C355.414 79.6925 359.103 82.8182 361.7 86.78C364.28 90.6854 365.619 95.2799 365.54 99.96V146H347.64V139.47C345.019 142.128 341.881 144.221 338.42 145.62C334.644 146.961 330.657 147.611 326.65 147.54ZM322 126.67C321.957 127.626 322.143 128.579 322.543 129.449C322.943 130.319 323.545 131.081 324.3 131.67C326.099 132.925 328.259 133.557 330.45 133.47C332.546 133.558 334.637 133.217 336.596 132.467C338.554 131.717 340.339 130.575 341.84 129.11C343.3 127.681 344.45 125.967 345.221 124.075C345.992 122.183 346.366 120.152 346.32 118.11V115.93L330.45 118.75C328.113 119.047 325.901 119.973 324.05 121.43C323.356 122.108 322.814 122.926 322.46 123.829C322.107 124.733 321.95 125.701 322 126.67Z"/>
<path fill="black" d="M369.24 76.11H387.16V84.69C388.776 81.3654 391.488 78.6991 394.84 77.14C398.551 75.3654 402.627 74.4884 406.74 74.58C411.101 74.5216 415.409 75.5309 419.29 77.52C422.881 79.1738 425.91 81.8438 428 85.2C432.947 78.12 440.157 74.58 449.63 74.58C454.286 74.4846 458.883 75.6305 462.95 77.9C466.838 80.0889 470.03 83.3295 472.16 87.25C474.437 91.4946 475.584 96.2539 475.49 101.07V146H456.29V105.17C456.29 101.07 455.18 97.8267 452.96 95.44C450.74 93.0533 447.797 91.86 444.13 91.86C442.461 91.7756 440.793 92.0517 439.24 92.6694C437.687 93.2872 436.285 94.2321 435.13 95.44C433.043 97.8133 432 101.057 432 105.17V146H412.8V105.17C412.8 101.07 411.69 97.8267 409.47 95.44C407.25 93.0533 404.307 91.86 400.64 91.86C398.971 91.7756 397.303 92.0517 395.75 92.6694C394.197 93.2872 392.795 94.2321 391.64 95.44C389.513 97.8333 388.447 101.077 388.44 105.17V146H369.24V76.11Z"/>
<path fill="black" d="M479.22 76.11H497.14V84.69C498.751 81.3615 501.464 78.6936 504.82 77.14C508.531 75.3654 512.607 74.4884 516.72 74.58C521.077 74.5204 525.383 75.5298 529.26 77.52C532.862 79.1704 535.9 81.8405 538 85.2C542.947 78.12 550.157 74.58 559.63 74.58C564.283 74.4859 568.877 75.6318 572.94 77.9C576.833 80.0856 580.029 83.3268 582.16 87.25C584.437 91.4946 585.584 96.2539 585.49 101.07V146H566.29V105.17C566.29 101.07 565.18 97.8267 562.96 95.44C561.84 94.233 560.469 93.2867 558.943 92.6681C557.417 92.0494 555.774 91.7736 554.13 91.86C552.461 91.7736 550.792 92.0488 549.239 92.6666C547.686 93.2845 546.284 94.2305 545.13 95.44C542.99 97.8333 541.923 101.077 541.93 105.17V146H522.73V105.17C522.73 101.07 521.62 97.8267 519.4 95.44C518.28 94.233 516.909 93.2867 515.383 92.6681C513.857 92.0494 512.214 91.7736 510.57 91.86C508.901 91.7736 507.232 92.0488 505.679 92.6666C504.126 93.2845 502.724 94.2305 501.57 95.44C499.43 97.8333 498.363 101.077 498.37 105.17V146H479.17L479.22 76.11Z"/>
<path fill="black" d="M613.32 147.54C605.727 147.54 599.753 145.747 595.4 142.16C591.047 138.573 588.873 133.623 588.88 127.31C588.783 124.58 589.279 121.861 590.336 119.342C591.393 116.823 592.984 114.564 595 112.72C599.18 108.88 605.41 106.277 613.69 104.91L633 101.84V99.92C633.013 98.6399 632.732 97.3738 632.179 96.2192C631.626 95.0646 630.816 94.0522 629.81 93.26C627.406 91.3823 624.407 90.4312 621.36 90.58C618.108 90.5247 614.923 91.5092 612.27 93.39C609.673 95.2279 607.707 97.8227 606.64 100.82L591.28 93.52C593.333 87.7081 597.379 82.8118 602.7 79.7C608.624 76.2068 615.404 74.4338 622.28 74.58C627.617 74.4774 632.91 75.5708 637.77 77.78C642.109 79.6894 645.801 82.8155 648.4 86.78C650.977 90.6865 652.312 95.2809 652.23 99.96V146H634.32V139.47C631.696 142.124 628.559 144.217 625.1 145.62C621.32 146.961 617.33 147.611 613.32 147.54ZM608.72 126.67C608.677 127.626 608.863 128.579 609.263 129.449C609.663 130.319 610.265 131.081 611.02 131.67C612.814 132.926 614.971 133.559 617.16 133.47C619.256 133.559 621.347 133.219 623.306 132.469C625.265 131.719 627.05 130.576 628.55 129.11C630.01 127.681 631.16 125.967 631.931 124.075C632.701 122.183 633.076 120.152 633.03 118.11V115.93L617.16 118.75C614.824 119.051 612.613 119.977 610.76 121.43C610.069 122.11 609.53 122.928 609.178 123.831C608.827 124.735 608.671 125.702 608.72 126.67Z"/>
</g>
<defs>
<linearGradient gradientUnits="userSpaceOnUse" y2="310.02" x2="-45.11" y1="-39.82" x1="118.92" id="paint0_linear_1_2">
<stop stop-color="#2B0AFF" offset="0.15"/>
<stop stop-color="#E40DF2" offset="0.59"/>
<stop stop-color="#F99B52" offset="0.78"/>
</linearGradient>
<linearGradient gradientUnits="userSpaceOnUse" y2="170.67" x2="-29.54" y1="-19.49" x1="128.69" id="paint1_linear_1_2">
<stop stop-color="#F99B52"/>
<stop stop-color="#FF5B8A" offset="0.52"/>
<stop stop-color="#2B0AFF" offset="1"/>
</linearGradient>
<linearGradient gradientUnits="userSpaceOnUse" y2="87.86" x2="127.83" y1="151.73" x1="149.61" id="paint2_linear_1_2">
<stop stop-color="#F99B52"/>
<stop stop-color="#FF5B8A" offset="0.52"/>
<stop stop-color="#2B0AFF" offset="1"/>
</linearGradient>
<linearGradient gradientUnits="userSpaceOnUse" y2="144" x2="146" y1="144" x1="24.3" id="paint3_linear_1_2">
<stop stop-color="#F99B52"/>
<stop stop-color="#FF5B8A" offset="0.52"/>
<stop stop-color="#2B0AFF" offset="1"/>
</linearGradient>
<linearGradient gradientUnits="userSpaceOnUse" y2="205.62" x2="107.48" y1="-13.57" x1="161.19" id="paint4_linear_1_2">
<stop stop-color="#2B0AFF" offset="0.15"/>
<stop stop-color="#E40DF2" offset="0.59"/>
<stop stop-color="#F6846D" offset="0.78"/>
</linearGradient>
<linearGradient gradientUnits="userSpaceOnUse" y2="-36.74" x2="261.8" y1="89.55" x1="83.25" id="paint5_linear_1_2">
<stop stop-color="#2B0AFF"/>
<stop stop-color="#E93ABF" offset="0.45"/>
<stop stop-color="#FF6C98" offset="1"/>
</linearGradient>
<clipPath id="clip0_1_2">
<rect fill="white" height="196.7" width="652.23"/>
</clipPath>
</defs>
</svg>